<svg xmlns="http://www.w3.org/2000/svg" viewBox="0 0 512 512" role="img" aria-label="TripTap">
  <rect width="512" height="512" rx="96" fill="#0f766e"/>
  <path d="M120 126c0-19.9 16.1-36 36-36h200c19.9 0 36 16.1 36 36v188c0 19.9-16.1 36-36 36H156c-19.9 0-36-16.1-36-36V126z" fill="#ffffff"/>
  <path d="M152 156c0-11 9-20 20-20h168c11 0 20 9 20 20v65c0 11-9 20-20 20H172c-11 0-20-9-20-20v-65z" fill="#e8f4ef"/>
  <path d="M152 278h208" stroke="#0f766e" stroke-width="28" stroke-linecap="round"/>
  <path d="M152 330h128" stroke="#f5b700" stroke-width="28" stroke-linecap="round"/>
  <circle cx="182" cy="396" r="31" fill="#20201e"/>
  <circle cx="330" cy="396" r="31" fill="#20201e"/>
  <path d="M176 90h160" stroke="#f5b700" stroke-width="22" stroke-linecap="round"/>
</svg>
